<svg width="133" height="179" viewBox="0 0 133 179" fill="none" xmlns="http://www.w3.org/2000/svg">
<path d="M116.5 88.5533C114.805 90.2453 112.892 91.6733 110.756 92.8373C108.621 94.0027 106.361 94.8907 103.975 95.5027C101.589 96.1107 99.2573 96.4173 96.9827 96.4173C92.932 96.4173 89.2147 95.5293 85.8333 93.7547C82.448 91.9787 79.5213 89.664 77.0533 86.804C74.584 83.948 72.6707 80.7027 71.3107 77.068C69.9507 73.4347 69.272 69.732 69.272 65.9573C69.272 62.408 69.896 58.872 71.1427 55.3467C72.392 51.824 74.2227 48.6627 76.636 45.8587C79.0493 43.0587 82.0053 40.7973 85.5 39.0787C88.9947 37.3587 92.9613 36.4987 97.4 36.4987C102.671 36.4987 107.193 37.692 110.965 40.076C114.737 42.4627 117.54 45.5693 119.369 49.3973L113.463 53.2253C112.573 51.34 111.507 49.7587 110.257 48.4827C109.009 47.2053 107.649 46.18 106.18 45.4027C104.709 44.6253 103.196 44.0707 101.644 43.7387C100.091 43.4053 98.5653 43.2387 97.068 43.2387C93.7933 43.2387 90.8947 43.9187 88.3707 45.2773C85.8453 46.6387 83.724 48.412 82.0053 50.604C80.2827 52.7973 78.992 55.264 78.1347 58.0093C77.2747 60.756 76.8453 63.5187 76.8453 66.292C76.8453 69.3987 77.3587 72.3533 78.384 75.1533C79.4107 77.956 80.8387 80.4387 82.6693 82.6027C84.5013 84.7667 86.6653 86.4853 89.16 87.7627C91.6587 89.0387 94.376 89.6747 97.3173 89.6747C98.8693 89.6747 100.467 89.4813 102.103 89.0933C103.739 88.7053 105.305 88.0813 106.805 87.22C108.303 86.3613 109.703 85.2787 111.008 83.9747C112.308 82.6733 113.379 81.1053 114.211 79.2733L120.453 82.6853C119.509 84.9053 118.192 86.86 116.5 88.5533ZM78.46 106.203H45.052V67.7667H28.8907V95.916H21.14V35.8733H28.8907V60.9947H45.052V46.16H52.804V60.9947H57.9333V35.8733H65.7733V95.916H57.9333V67.7667H52.804V99.6987H78.46V106.203ZM0 132.052H132.052V-3.93546e-06H0V132.052Z" fill="white"/>
<path d="M1.81116 142.238H4.73249V148.87H12.4085V142.238H15.3312V158.655H12.4085V151.375H4.73249V158.655H1.81116V142.238Z" fill="white"/>
<path d="M18.9473 142.238H21.8687V158.655H18.9473V142.238Z" fill="white"/>
<path d="M39.8644 157.797C39.0298 158.2 38.1138 158.512 37.1164 158.736C36.1191 158.96 34.9711 159.073 33.6724 159.073C32.3431 159.073 31.1298 158.86 30.0324 158.436C28.9351 158.009 27.9924 157.415 27.2031 156.649C26.4151 155.884 25.8004 154.972 25.3591 153.913C24.9191 152.855 24.6991 151.683 24.6991 150.4C24.6991 149.087 24.9271 147.9 25.3831 146.84C25.8378 145.781 26.4644 144.88 27.2618 144.139C28.0578 143.396 28.9964 142.825 30.0778 142.423C31.1604 142.021 32.3364 141.82 33.6031 141.82C34.9164 141.82 36.1191 142.009 37.2098 142.388C38.2991 142.768 39.1764 143.267 39.8404 143.883L37.8244 146.064C37.4058 145.6 36.8231 145.207 36.0724 144.88C35.3231 144.556 34.5071 144.393 33.6258 144.393C32.7604 144.393 31.9764 144.548 31.2738 144.857C30.5684 145.167 29.9698 145.592 29.4751 146.133C28.9804 146.675 28.5978 147.308 28.3284 148.035C28.0578 148.763 27.9218 149.549 27.9218 150.4C27.9218 151.281 28.0578 152.089 28.3284 152.824C28.5978 153.557 28.9844 154.196 29.4871 154.736C29.9898 155.277 30.6004 155.699 31.3191 156C32.0378 156.301 32.8524 156.452 33.7658 156.452C35.0178 156.452 36.1084 156.26 37.0351 155.873V151.699H33.5804V149.287H39.8644V157.797Z" fill="white"/>
<path d="M43.4126 142.238H46.3339V148.87H54.0099V142.238H56.9326V158.655H54.0099V151.375H46.3339V158.655H43.4126V142.238Z" fill="white"/>
<path d="M66.3462 142.238H69.2675V156.058H76.2489V158.655H66.3462V142.238Z" fill="white"/>
<path d="M78.1953 142.238H89.0713V144.788H81.1166V148.963H88.654V151.42H81.1166V156.058H89.4886V158.655H78.1953V142.238Z" fill="white"/>
<path d="M90.2993 142.238H93.5686L98.0913 154.876H98.1833L102.753 142.238H105.906L99.3206 158.655H96.7926L90.2993 142.238Z" fill="white"/>
<path d="M107.483 142.238H118.359V144.788H110.404V148.963H117.942V151.42H110.404V156.058H118.776V158.655H107.483V142.238Z" fill="white"/>
<path d="M121.627 142.238H124.549V156.058H131.53V158.655H121.627V142.238Z" fill="white"/>
<path d="M11.8345 166.971C11.4598 166.461 10.9718 166.089 10.3678 165.855C9.76514 165.621 9.17714 165.503 8.59981 165.503C7.86381 165.503 7.19447 165.637 6.59181 165.905C5.98914 166.173 5.47048 166.543 5.03448 167.011C4.59848 167.48 4.26381 168.028 4.02914 168.659C3.79581 169.287 3.67847 169.971 3.67847 170.707C3.67847 171.484 3.79314 172.193 4.02114 172.836C4.24781 173.48 4.57314 174.032 4.99447 174.495C5.41714 174.956 5.92114 175.315 6.51181 175.568C7.09981 175.824 7.76381 175.949 8.49981 175.949C9.26381 175.949 9.93981 175.8 10.5291 175.499C11.1185 175.197 11.5931 174.799 11.9558 174.303L13.9838 175.729C13.3558 176.52 12.5838 177.132 11.6745 177.567C10.7625 178.001 9.69847 178.221 8.47981 178.221C7.36781 178.221 6.34781 178.036 5.41714 177.667C4.48514 177.3 3.68514 176.784 3.01581 176.12C2.34648 175.457 1.82381 174.668 1.44914 173.751C1.07448 172.832 0.886475 171.819 0.886475 170.707C0.886475 169.568 1.08381 168.541 1.47847 167.623C1.87314 166.707 2.41714 165.925 3.10648 165.283C3.79581 164.64 4.60914 164.145 5.54647 163.796C6.48381 163.448 7.50247 163.275 8.59981 163.275C9.05581 163.275 9.53047 163.317 10.0278 163.404C10.5225 163.492 10.9985 163.625 11.4531 163.807C11.9091 163.988 12.3371 164.212 12.7398 164.48C13.1398 164.747 13.4825 165.068 13.7638 165.443L11.8345 166.971Z" fill="white"/>
<path d="M17.3801 170.706C17.3801 171.47 17.4961 172.17 17.7321 172.806C17.9641 173.442 18.3001 173.996 18.7361 174.464C19.1707 174.933 19.6854 175.297 20.2827 175.558C20.8787 175.82 21.5374 175.95 22.2614 175.95C22.9841 175.95 23.6467 175.82 24.2494 175.558C24.8521 175.297 25.3721 174.933 25.8067 174.464C26.2414 173.996 26.5761 173.442 26.8107 172.806C27.0454 172.17 27.1627 171.47 27.1627 170.706C27.1627 169.97 27.0454 169.288 26.8107 168.658C26.5761 168.028 26.2454 167.48 25.8174 167.012C25.3881 166.542 24.8721 166.174 24.2707 165.905C23.6681 165.637 22.9974 165.504 22.2614 165.504C21.5241 165.504 20.8574 165.637 20.2627 165.905C19.6667 166.174 19.1534 166.542 18.7254 167.012C18.2961 167.48 17.9641 168.028 17.7321 168.658C17.4961 169.288 17.3801 169.97 17.3801 170.706ZM14.6281 170.706C14.6281 169.568 14.8174 168.541 15.2001 167.622C15.5814 166.706 16.1107 165.925 16.7867 165.284C17.4627 164.64 18.2667 164.145 19.1974 163.796C20.1294 163.449 21.1427 163.274 22.2414 163.274C23.3521 163.274 24.3774 163.449 25.3147 163.796C26.2521 164.145 27.0627 164.64 27.7454 165.284C28.4281 165.925 28.9614 166.706 29.3427 167.622C29.7241 168.541 29.9147 169.568 29.9147 170.706C29.9147 171.818 29.7241 172.833 29.3427 173.75C28.9614 174.669 28.4281 175.457 27.7454 176.121C27.0627 176.785 26.2521 177.3 25.3147 177.668C24.3774 178.036 23.3521 178.221 22.2414 178.221C21.1427 178.221 20.1294 178.036 19.1974 177.668C18.2667 177.3 17.4627 176.785 16.7867 176.121C16.1107 175.457 15.5814 174.669 15.2001 173.75C14.8174 172.833 14.6281 171.818 14.6281 170.706Z" fill="white"/>
<path d="M43.6965 172.636C43.6965 173.493 43.5498 174.267 43.2552 174.956C42.9592 175.645 42.5578 176.231 42.0498 176.715C41.5405 177.196 40.9378 177.567 40.2405 177.829C39.5458 178.089 38.7872 178.22 37.9712 178.22C37.1538 178.22 36.3965 178.089 35.7019 177.829C35.0045 177.567 34.3978 177.196 33.8832 176.715C33.3672 176.231 32.9659 175.645 32.6779 174.956C32.3899 174.267 32.2458 173.493 32.2458 172.636V163.636H34.7778V172.535C34.7778 172.949 34.8312 173.363 34.9379 173.771C35.0445 174.179 35.2232 174.544 35.4698 174.865C35.7178 175.187 36.0458 175.448 36.4538 175.649C36.8632 175.849 37.3685 175.949 37.9712 175.949C38.5738 175.949 39.0792 175.849 39.4885 175.649C39.8965 175.448 40.2245 175.187 40.4725 174.865C40.7205 174.544 40.8965 174.179 41.0045 173.771C41.1125 173.363 41.1658 172.949 41.1658 172.535V163.636H43.6965V172.636Z" fill="white"/>
<path d="M46.7095 163.636H50.0655L56.6748 174.283H56.7148V163.636H59.2455V177.859H56.0308L49.2815 166.871H49.2401V177.859H46.7095V163.636Z" fill="white"/>
<path d="M69.6314 166.609C69.3634 166.261 68.9861 165.97 68.4954 165.735C68.0074 165.501 67.5154 165.383 67.0194 165.383C66.7248 165.383 66.4314 165.419 66.1368 165.494C65.8408 165.567 65.5741 165.682 65.3314 165.835C65.0914 165.989 64.8928 166.191 64.7394 166.438C64.5861 166.686 64.5088 166.983 64.5088 167.331C64.5088 167.653 64.5754 167.927 64.7101 168.155C64.8434 168.383 65.0274 168.578 65.2621 168.738C65.4954 168.899 65.7808 169.039 66.1154 169.159C66.4501 169.281 66.8194 169.402 67.2208 169.522C67.6754 169.669 68.1488 169.837 68.6368 170.025C69.1261 170.211 69.5741 170.459 69.9834 170.767C70.3914 171.075 70.7261 171.465 70.9888 171.933C71.2488 172.402 71.3794 172.983 71.3794 173.681C71.3794 174.443 71.2381 175.11 70.9568 175.679C70.6754 176.247 70.3008 176.721 69.8314 177.095C69.3634 177.47 68.8154 177.751 68.1848 177.939C67.5554 178.127 66.8928 178.221 66.1968 178.221C65.2714 178.221 64.3688 178.05 63.4848 177.707C62.6008 177.366 61.8781 176.861 61.3154 176.191L63.1221 174.503C63.4714 174.986 63.9368 175.367 64.5194 175.649C65.1021 175.93 65.6741 176.071 66.2368 176.071C66.5314 176.071 66.8314 176.034 67.1408 175.961C67.4474 175.887 67.7261 175.762 67.9741 175.589C68.2221 175.414 68.4234 175.197 68.5768 174.935C68.7301 174.675 68.8088 174.35 68.8088 173.962C68.8088 173.586 68.7208 173.275 68.5474 173.026C68.3728 172.779 68.1381 172.566 67.8434 172.385C67.5488 172.203 67.2008 172.046 66.7994 171.913L65.5341 171.49C65.1034 171.357 64.6754 171.195 64.2474 171.009C63.8194 170.821 63.4341 170.574 63.0928 170.265C62.7514 169.957 62.4728 169.579 62.2594 169.13C62.0448 168.682 61.9368 168.122 61.9368 167.453C61.9368 166.73 62.0888 166.106 62.3888 165.583C62.6914 165.062 63.0861 164.63 63.5741 164.289C64.0634 163.947 64.6194 163.691 65.2421 163.525C65.8648 163.358 66.4968 163.274 67.1408 163.274C67.8634 163.274 68.5981 163.402 69.3394 163.655C70.0834 163.91 70.7288 164.293 71.2781 164.801L69.6314 166.609Z" fill="white"/>
<path d="M73.91 163.636H83.3314V165.845H76.4407V169.461H82.9714V171.591H76.4407V175.608H83.694V177.859H73.91V163.636Z" fill="white"/>
<path d="M86.1639 163.636H88.6946V175.608H94.7426V177.859H86.1639V163.636Z" fill="white"/>
<path d="M96.4299 163.636H98.9606V177.859H96.4299V163.636Z" fill="white"/>
<path d="M102.095 163.636H105.451L112.06 174.283H112.1V163.636H114.631V177.859H111.416L104.667 166.871H104.626V177.859H102.095V163.636Z" fill="white"/>
<path d="M130.22 177.115C129.497 177.465 128.703 177.735 127.84 177.929C126.975 178.123 125.981 178.221 124.857 178.221C123.704 178.221 122.653 178.035 121.701 177.667C120.751 177.301 119.935 176.785 119.251 176.121C118.569 175.458 118.036 174.669 117.655 173.751C117.272 172.833 117.081 171.818 117.081 170.706C117.081 169.569 117.279 168.541 117.675 167.623C118.069 166.706 118.612 165.925 119.303 165.283C119.991 164.641 120.804 164.145 121.743 163.797C122.68 163.449 123.697 163.274 124.796 163.274C125.935 163.274 126.975 163.438 127.92 163.766C128.864 164.094 129.624 164.527 130.2 165.062L128.452 166.95C128.091 166.549 127.584 166.206 126.936 165.925C126.287 165.643 125.58 165.503 124.816 165.503C124.067 165.503 123.387 165.638 122.777 165.906C122.168 166.174 121.648 166.542 121.22 167.011C120.792 167.479 120.46 168.029 120.225 168.658C119.991 169.287 119.873 169.971 119.873 170.706C119.873 171.471 119.991 172.17 120.225 172.807C120.46 173.442 120.795 173.995 121.231 174.465C121.665 174.933 122.193 175.298 122.817 175.558C123.44 175.819 124.145 175.95 124.936 175.95C126.023 175.95 126.967 175.783 127.769 175.449V171.831H124.776V169.743H130.22V177.115Z" fill="white"/>
</svg>
