<svg width="151" height="151" viewBox="0 0 151 151" fill="none" xmlns="http://www.w3.org/2000/svg">
<path d="M133.107 101.176C131.171 103.109 128.984 104.741 126.545 106.071C124.104 107.403 121.521 108.417 118.796 109.116C116.071 109.811 113.408 110.161 110.808 110.161C106.181 110.161 101.933 109.147 98.068 107.119C94.2 105.091 90.856 102.444 88.036 99.1787C85.216 95.9147 83.028 92.2067 81.476 88.0547C79.9213 83.9013 79.1467 79.672 79.1467 75.3587C79.1467 71.304 79.86 67.264 81.2853 63.236C82.712 59.212 84.8027 55.5987 87.5613 52.3973C90.3187 49.1973 93.6947 46.6133 97.688 44.6493C101.681 42.684 106.212 41.7013 111.284 41.7013C117.307 41.7013 122.471 43.0653 126.783 45.7893C131.092 48.516 134.295 52.0653 136.387 56.4387L129.636 60.812C128.621 58.6587 127.401 56.852 125.975 55.3933C124.548 53.9347 122.995 52.7627 121.316 51.8747C119.635 50.9867 117.908 50.3533 116.135 49.9733C114.359 49.592 112.615 49.4027 110.904 49.4027C107.163 49.4027 103.851 50.18 100.968 51.732C98.0827 53.2867 95.6587 55.3133 93.6947 57.8173C91.728 60.3227 90.2533 63.1413 89.2733 66.2787C88.2893 69.4173 87.7987 72.572 87.7987 75.7413C87.7987 79.292 88.384 82.6667 89.5573 85.8667C90.7307 89.068 92.3627 91.904 94.4547 94.376C96.548 96.8493 99.0187 98.8147 101.871 100.272C104.724 101.731 107.829 102.457 111.189 102.457C112.964 102.457 114.787 102.237 116.657 101.793C118.525 101.351 120.317 100.637 122.028 99.6533C123.74 98.672 125.34 97.4347 126.831 95.9453C128.319 94.4573 129.541 92.6667 130.492 90.5733L137.623 94.472C136.544 97.0093 135.039 99.2427 133.107 101.176ZM89.644 121.341H51.4747V77.4267H33.0093V109.589H24.1547V40.988H33.0093V69.6893H51.4747V52.7387H60.3293V69.6893H66.192V40.988H75.148V109.589H66.192V77.4267H60.3293V113.911H89.644V121.341ZM0 150.875H150.875V-1.17969e-06H0V150.875Z" fill="#375380"/>
</svg>
