<svg width="151" height="204" viewBox="0 0 151 204" fill="none" xmlns="http://www.w3.org/2000/svg">
<path d="M133.107 101.176C131.171 103.109 128.984 104.741 126.545 106.071C124.104 107.403 121.521 108.417 118.796 109.116C116.071 109.811 113.408 110.161 110.808 110.161C106.181 110.161 101.933 109.147 98.068 107.119C94.2 105.091 90.856 102.444 88.036 99.1787C85.216 95.9147 83.028 92.2067 81.476 88.0547C79.9213 83.9013 79.1467 79.672 79.1467 75.3587C79.1467 71.304 79.86 67.264 81.2853 63.236C82.712 59.212 84.8027 55.5987 87.5613 52.3973C90.3187 49.1973 93.6947 46.6133 97.688 44.6493C101.681 42.684 106.212 41.7013 111.284 41.7013C117.307 41.7013 122.471 43.0653 126.783 45.7893C131.092 48.516 134.295 52.0653 136.387 56.4387L129.636 60.812C128.621 58.6587 127.401 56.852 125.975 55.3933C124.548 53.9347 122.995 52.7627 121.316 51.8747C119.635 50.9867 117.908 50.3533 116.135 49.9733C114.359 49.592 112.615 49.4027 110.904 49.4027C107.163 49.4027 103.851 50.18 100.968 51.732C98.0827 53.2867 95.6587 55.3133 93.6947 57.8173C91.728 60.3227 90.2533 63.1413 89.2733 66.2787C88.2893 69.4173 87.7987 72.572 87.7987 75.7413C87.7987 79.292 88.384 82.6667 89.5573 85.8667C90.7307 89.068 92.3627 91.904 94.4547 94.376C96.548 96.8493 99.0187 98.8147 101.871 100.272C104.724 101.731 107.829 102.457 111.189 102.457C112.964 102.457 114.787 102.237 116.657 101.793C118.525 101.351 120.317 100.637 122.028 99.6533C123.74 98.672 125.34 97.4347 126.831 95.9453C128.319 94.4573 129.541 92.6667 130.492 90.5733L137.623 94.472C136.544 97.0093 135.039 99.2427 133.107 101.176ZM89.644 121.341H51.4747V77.4267H33.0093V109.589H24.1547V40.988H33.0093V69.6893H51.4747V52.7387H60.3293V69.6893H66.192V40.988H75.148V109.589H66.192V77.4267H60.3293V113.911H89.644V121.341ZM0 150.875H150.875V-1.17969e-06H0V150.875Z" fill="#375380"/>
<path d="M2.06836 162.513H5.40703V170.09H14.1764V162.513H17.515V181.27H14.1764V172.951H5.40703V181.27H2.06836V162.513Z" fill="#6D6F71"/>
<path d="M21.6483 162.512H24.987V181.27H21.6483V162.512Z" fill="#6D6F71"/>
<path d="M45.5461 180.29C44.5928 180.75 43.5461 181.107 42.4061 181.363C41.2675 181.619 39.9555 181.747 38.4715 181.747C36.9528 181.747 35.5661 181.505 34.3128 181.019C33.0581 180.534 31.9808 179.853 31.0795 178.979C30.1795 178.103 29.4768 177.062 28.9728 175.853C28.4701 174.643 28.2181 173.305 28.2181 171.838C28.2181 170.337 28.4795 168.982 28.9995 167.771C29.5208 166.562 30.2368 165.533 31.1461 164.685C32.0555 163.837 33.1288 163.183 34.3648 162.723C35.6021 162.265 36.9435 162.035 38.3928 162.035C39.8941 162.035 41.2675 162.253 42.5128 162.685C43.7581 163.117 44.7595 163.687 45.5195 164.393L43.2141 166.883C42.7381 166.354 42.0715 165.903 41.2141 165.533C40.3568 165.161 39.4261 164.977 38.4195 164.977C37.4301 164.977 36.5328 165.153 35.7301 165.506C34.9261 165.859 34.2408 166.345 33.6768 166.963C33.1101 167.582 32.6741 168.306 32.3648 169.137C32.0555 169.966 31.9008 170.867 31.9008 171.838C31.9008 172.845 32.0555 173.767 32.3648 174.606C32.6741 175.446 33.1155 176.175 33.6888 176.793C34.2635 177.411 34.9621 177.893 35.7821 178.237C36.6035 178.582 37.5355 178.754 38.5781 178.754C40.0088 178.754 41.2541 178.533 42.3141 178.091V173.322H38.3661V170.566H45.5461V180.29Z" fill="#6D6F71"/>
<path d="M49.5995 162.513H52.9382V170.09H61.7075V162.513H65.0462V181.27H61.7075V172.951H52.9382V181.27H49.5995V162.513Z" fill="#6D6F71"/>
<path d="M75.8027 162.513H79.1414V178.303H87.1161V181.27H75.8027V162.513Z" fill="#6D6F71"/>
<path d="M89.3411 162.513H101.768V165.427H92.6797V170.197H101.29V173.003H92.6797V178.303H102.244V181.27H89.3411V162.513Z" fill="#6D6F71"/>
<path d="M103.171 162.513H106.907L112.074 176.951H112.179L117.399 162.513H121.002L113.478 181.27H110.59L103.171 162.513Z" fill="#6D6F71"/>
<path d="M122.803 162.513H135.23V165.427H126.142V170.197H134.753V173.003H126.142V178.303H135.706V181.27H122.803V162.513Z" fill="#6D6F71"/>
<path d="M138.965 162.513H142.304V178.303H150.278V181.27H138.965V162.513Z" fill="#6D6F71"/>
<path d="M13.5215 190.77C13.0922 190.188 12.5349 189.764 11.8455 189.496C11.1575 189.229 10.4842 189.094 9.82554 189.094C8.98421 189.094 8.21887 189.246 7.53087 189.553C6.84154 189.86 6.24821 190.281 5.75221 190.816C5.25354 191.352 4.87221 191.978 4.60421 192.697C4.33621 193.417 4.20287 194.197 4.20287 195.038C4.20287 195.926 4.33221 196.738 4.59221 197.472C4.85354 198.206 5.22421 198.838 5.70554 199.365C6.18821 199.894 6.76554 200.302 7.43887 200.593C8.11221 200.885 8.86954 201.029 9.71087 201.029C10.5829 201.029 11.3549 200.857 12.0295 200.514C12.7029 200.169 13.2455 199.714 13.6589 199.148L15.9775 200.777C15.2575 201.681 14.3789 202.381 13.3375 202.877C12.2975 203.374 11.0802 203.624 9.68821 203.624C8.41754 203.624 7.25087 203.413 6.18821 202.993C5.12421 202.572 4.20954 201.982 3.44421 201.225C2.68021 200.466 2.08287 199.565 1.65487 198.517C1.22554 197.468 1.01221 196.309 1.01221 195.038C1.01221 193.74 1.23754 192.565 1.68821 191.517C2.14021 190.468 2.76021 189.576 3.54821 188.842C4.33621 188.108 5.26554 187.541 6.33754 187.144C7.40821 186.745 8.57087 186.546 9.82554 186.546C10.3455 186.546 10.8895 186.596 11.4562 186.696C12.0215 186.796 12.5642 186.949 13.0855 187.154C13.6042 187.361 14.0949 187.618 14.5535 187.924C15.0135 188.23 15.4042 188.597 15.7242 189.025L13.5215 190.77Z" fill="#6D6F71"/>
<path d="M19.856 195.039C19.856 195.911 19.9907 196.712 20.2574 197.439C20.5254 198.165 20.908 198.796 21.4054 199.332C21.9027 199.867 22.492 200.284 23.1734 200.583C23.8534 200.881 24.6067 201.029 25.4334 201.029C26.26 201.029 27.0174 200.881 27.7067 200.583C28.3947 200.284 28.988 199.867 29.4854 199.332C29.9827 198.796 30.364 198.165 30.6334 197.439C30.9 196.712 31.0347 195.911 31.0347 195.039C31.0347 194.197 30.9 193.417 30.6334 192.697C30.364 191.979 29.9867 191.351 29.496 190.816C29.0067 190.281 28.4174 189.86 27.7294 189.553C27.04 189.247 26.2747 189.095 25.4334 189.095C24.592 189.095 23.8307 189.247 23.1494 189.553C22.468 189.86 21.884 190.281 21.3934 190.816C20.904 191.351 20.5254 191.979 20.2574 192.697C19.9907 193.417 19.856 194.197 19.856 195.039ZM16.712 195.039C16.712 193.739 16.9294 192.565 17.3654 191.516C17.8014 190.468 18.4067 189.576 19.1787 188.843C19.952 188.108 20.8694 187.541 21.9334 187.144C22.996 186.745 24.156 186.547 25.4107 186.547C26.6814 186.547 27.852 186.745 28.9227 187.144C29.9934 187.541 30.9187 188.108 31.7 188.843C32.48 189.576 33.088 190.468 33.524 191.516C33.9614 192.565 34.1787 193.739 34.1787 195.039C34.1787 196.309 33.9614 197.468 33.524 198.516C33.088 199.565 32.48 200.467 31.7 201.225C30.9187 201.983 29.9934 202.571 28.9227 202.993C27.852 203.413 26.6814 203.623 25.4107 203.623C24.156 203.623 22.996 203.413 21.9334 202.993C20.8694 202.571 19.952 201.983 19.1787 201.225C18.4067 200.467 17.8014 199.565 17.3654 198.516C16.9294 197.468 16.712 196.309 16.712 195.039" fill="#6D6F71"/>
<path d="M49.9243 197.243C49.9243 198.222 49.7563 199.106 49.419 199.894C49.083 200.682 48.623 201.351 48.0417 201.902C47.4603 202.452 46.7723 202.878 45.9763 203.176C45.1803 203.475 44.3163 203.623 43.383 203.623C42.4497 203.623 41.5843 203.475 40.7883 203.176C39.9937 202.878 39.3003 202.452 38.7123 201.902C38.123 201.351 37.6643 200.682 37.335 199.894C37.0057 199.106 36.8403 198.222 36.8403 197.243V186.96H39.7337V197.128C39.7337 197.603 39.7937 198.072 39.9177 198.54C40.039 199.006 40.2417 199.423 40.5257 199.79C40.8083 200.158 41.183 200.456 41.6497 200.686C42.1163 200.915 42.695 201.03 43.383 201.03C44.071 201.03 44.6483 200.915 45.1163 200.686C45.583 200.456 45.9563 200.158 46.2403 199.79C46.523 199.423 46.7257 199.006 46.8483 198.54C46.971 198.072 47.0323 197.603 47.0323 197.128V186.96H49.9243V197.243Z" fill="#6D6F71"/>
<path d="M53.3671 186.961H57.2004L64.7524 199.125H64.7977V186.961H67.6897V203.211H64.0177L56.3057 190.655H56.2591V203.211H53.3671V186.961Z" fill="#6D6F71"/>
<path d="M79.5559 190.356C79.2506 189.959 78.8172 189.626 78.2586 189.359C77.6999 189.091 77.1386 188.956 76.5719 188.956C76.2359 188.956 75.8986 188.999 75.5626 189.083C75.2252 189.167 74.9199 189.298 74.6439 189.474C74.3679 189.65 74.1426 189.879 73.9666 190.162C73.7906 190.444 73.7026 190.786 73.7026 191.183C73.7026 191.551 73.7786 191.864 73.9332 192.124C74.0852 192.384 74.2959 192.606 74.5639 192.79C74.8319 192.974 75.1572 193.134 75.5386 193.272C75.9212 193.41 76.3426 193.548 76.8026 193.684C77.3212 193.854 77.8612 194.046 78.4199 194.259C78.9786 194.474 79.4906 194.756 79.9572 195.107C80.4239 195.46 80.8066 195.904 81.1052 196.439C81.4039 196.975 81.5532 197.64 81.5532 198.436C81.5532 199.308 81.3919 200.07 81.0706 200.719C80.7506 201.371 80.3212 201.91 79.7852 202.338C79.2506 202.767 78.6226 203.088 77.9039 203.303C77.1839 203.516 76.4266 203.623 75.6319 203.623C74.5759 203.623 73.5426 203.428 72.5319 203.039C71.5226 202.648 70.6959 202.071 70.0532 201.306L72.1186 199.378C72.5172 199.928 73.0492 200.364 73.7146 200.686C74.3799 201.007 75.0346 201.167 75.6772 201.167C76.0132 201.167 76.3586 201.126 76.7106 201.042C77.0612 200.958 77.3786 200.816 77.6626 200.616C77.9452 200.418 78.1746 200.168 78.3506 199.871C78.5266 199.572 78.6146 199.202 78.6146 198.758C78.6146 198.328 78.5159 197.974 78.3159 197.691C78.1172 197.407 77.8492 197.162 77.5132 196.955C77.1759 196.75 76.7786 196.57 76.3199 196.416C75.8612 196.264 75.3786 196.103 74.8732 195.935C74.3839 195.782 73.8946 195.599 73.4052 195.384C72.9146 195.168 72.4746 194.886 72.0852 194.535C71.6946 194.182 71.3772 193.751 71.1319 193.238C70.8879 192.724 70.7652 192.087 70.7652 191.322C70.7652 190.495 70.9372 189.783 71.2812 189.186C71.6252 188.59 72.0772 188.096 72.6359 187.706C73.1946 187.316 73.8292 187.026 74.5412 186.834C75.2519 186.643 75.9746 186.547 76.7106 186.547C77.5359 186.547 78.3746 186.692 79.2226 186.983C80.0719 187.274 80.8106 187.71 81.4386 188.291L79.5559 190.356Z" fill="#6D6F71"/>
<path d="M84.4446 186.961H95.2099V189.486H87.3366V193.617H94.7966V196.049H87.3366V200.641H95.6219V203.211H84.4446V186.961Z" fill="#6D6F71"/>
<path d="M98.4453 186.961H101.337V200.641H108.247V203.211H98.4453V186.961Z" fill="#6D6F71"/>
<path d="M110.174 186.96H113.066V203.211H110.174V186.96Z" fill="#6D6F71"/>
<path d="M116.646 186.961H120.48L128.032 199.125H128.077V186.961H130.969V203.211H127.297L119.585 190.655H119.538V203.211H116.646V186.961Z" fill="#6D6F71"/>
<path d="M148.78 202.362C147.953 202.76 147.048 203.068 146.06 203.291C145.073 203.512 143.937 203.623 142.652 203.623C141.336 203.623 140.135 203.414 139.048 202.994C137.961 202.571 137.029 201.983 136.248 201.224C135.468 200.467 134.86 199.564 134.423 198.516C133.987 197.468 133.769 196.31 133.769 195.039C133.769 193.739 133.995 192.564 134.447 191.516C134.897 190.468 135.517 189.576 136.305 188.842C137.093 188.108 138.023 187.542 139.095 187.144C140.165 186.746 141.328 186.547 142.583 186.547C143.884 186.547 145.073 186.734 146.152 187.11C147.231 187.484 148.099 187.978 148.757 188.59L146.76 190.747C146.347 190.288 145.769 189.898 145.028 189.576C144.285 189.255 143.477 189.095 142.607 189.095C141.749 189.095 140.972 189.247 140.276 189.554C139.58 189.86 138.987 190.28 138.497 190.816C138.007 191.351 137.629 191.979 137.361 192.698C137.093 193.418 136.96 194.198 136.96 195.039C136.96 195.911 137.093 196.712 137.361 197.439C137.629 198.166 138.011 198.796 138.509 199.332C139.005 199.867 139.611 200.283 140.323 200.583C141.033 200.882 141.84 201.03 142.744 201.03C143.983 201.03 145.061 200.839 145.98 200.456V196.326H142.56V193.938H148.78V202.362Z" fill="#6D6F71"/>
</svg>
